<?xml version="1.0" standalone="no"?>
<!DOCTYPE svg PUBLIC "-//W3C//DTD SVG 20010904//EN"
 "http://www.w3.org/TR/2001/REC-SVG-20010904/DTD/svg10.dtd">
<svg version="1.0" xmlns="http://www.w3.org/2000/svg"
 width="280.000000pt" height="280.000000pt" viewBox="0 0 280.000000 280.000000"
 preserveAspectRatio="xMidYMid meet">
<metadata>
Created by potrace 1.11, written by Peter Selinger 2001-2013
</metadata>
<g transform="translate(0.000000,280.000000) scale(0.100000,-0.100000)"
fill="#000000" stroke="none">
<path d="M885 2320 c-3 -5 -3 -10 2 -10 4 0 1 -5 -7 -11 -12 -8 -12 -10 -1 -7
8 2 15 12 17 21 3 19 -2 22 -11 7z"/>
<path d="M910 2321 c0 -6 4 -13 10 -16 6 -3 7 1 4 9 -7 18 -14 21 -14 7z"/>
<path d="M930 2319 c0 -4 5 -11 12 -15 6 -4 8 -3 5 2 -3 5 3 10 14 10 19 0 19
-1 3 -13 -9 -7 -20 -10 -25 -8 -4 3 -10 -1 -12 -7 -4 -10 -6 -10 -6 0 -1 10
-6 10 -22 2 -15 -8 -24 -8 -34 0 -10 8 -15 8 -21 -1 -5 -8 -3 -9 7 -4 12 8 12
6 0 -8 -15 -18 -26 -23 -16 -7 3 6 1 10 -5 10 -6 0 -9 4 -5 9 3 5 0 13 -6 17
-8 4 -9 3 -5 -5 4 -6 0 -14 -8 -17 -9 -3 -16 -11 -16 -16 0 -6 7 -5 15 2 13
11 14 10 9 -4 -4 -12 -14 -14 -37 -11 -17 3 -33 8 -37 10 -4 2 -7 -2 -7 -10 0
-8 4 -12 8 -9 4 2 11 -1 15 -8 4 -7 3 -10 -1 -5 -5 4 -20 0 -33 -9 -24 -16
-25 -16 -19 2 4 11 -3 6 -15 -10 -20 -26 -22 -27 -29 -10 -7 17 -8 17 -8 2 -1
-18 -16 -24 -24 -10 -2 4 -2 1 -1 -5 2 -7 -1 -13 -6 -13 -5 0 -6 -8 -3 -17 6
-16 5 -17 -12 -3 -11 9 -16 10 -11 3 4 -7 2 -13 -3 -13 -6 0 -11 5 -11 12 0 6
-3 8 -6 5 -4 -4 -1 -15 7 -24 7 -10 9 -15 4 -10 -4 4 -17 -1 -28 -10 -11 -10
-17 -12 -13 -5 5 7 1 12 -9 12 -12 0 -15 -5 -11 -17 6 -17 5 -17 -7 -1 -8 10
-17 16 -21 13 -3 -3 -2 1 4 7 5 7 10 22 10 35 0 13 4 23 8 23 5 0 9 7 9 14 0
8 -5 14 -11 13 -6 -1 -10 4 -8 11 1 8 -2 11 -8 7 -5 -3 -10 -1 -10 4 0 6 -5
11 -11 11 -5 0 -7 -6 -3 -12 4 -7 -1 -6 -12 3 -10 9 -29 22 -41 28 -18 9 -22
9 -18 -2 6 -14 -31 -21 -40 -7 -3 5 -12 7 -20 3 -11 -4 -14 0 -9 13 5 18 5 18
-6 1 -12 -19 -35 -13 -24 6 4 7 -5 1 -21 -13 -21 -19 -27 -21 -22 -7 6 15 4
16 -16 3 -25 -16 -73 -4 -61 15 4 8 3 9 -5 5 -7 -5 -9 -17 -6 -29 5 -17 2 -15
-15 8 -12 17 -19 22 -16 12 3 -10 2 -16 -2 -13 -4 2 -14 1 -22 -4 -10 -6 -21
-3 -35 8 -19 16 -19 16 -6 0 13 -18 4 -25 -15 -10 -5 4 -1 -1 9 -10 15 -15 16
-18 4 -18 -11 0 -13 -6 -9 -22 3 -13 1 -19 -6 -15 -6 4 -9 0 -7 -10 2 -10 4
-23 4 -30 1 -7 7 -11 14 -9 6 1 9 1 4 -1 -4 -3 -4 -10 -1 -15 4 -7 2 -8 -4 -4
-7 4 -12 1 -12 -8 0 -8 6 -14 13 -12 6 1 9 1 4 -1 -4 -3 -4 -10 -1 -15 4 -6 2
-8 -3 -5 -6 4 -14 0 -17 -9 -3 -8 -2 -13 2 -10 4 3 13 -4 20 -15 10 -16 10
-21 -3 -25 -14 -6 -14 -9 -1 -29 14 -21 13 -24 -7 -40 -12 -9 -17 -13 -11 -11
7 3 15 -1 18 -10 4 -12 2 -15 -9 -11 -8 4 -17 1 -21 -5 -4 -7 -3 -8 4 -4 7 4
12 3 12 -3 0 -6 6 -9 13 -7 6 1 9 1 4 -1 -4 -3 -4 -10 -1 -15 4 -7 2 -8 -4 -4
-7 4 -12 1 -12 -8 0 -8 6 -14 13 -12 6 1 9 1 4 -1 -4 -3 -4 -10 -1 -15 4 -6 2
-8 -3 -5 -6 4 -14 0 -17 -9 -3 -8 -2 -13 3 -10 5 3 12 -1 15 -10 3 -8 2 -12
-4 -9 -17 11 -11 -7 8 -21 13 -11 14 -13 1 -9 -17 6 -20 -19 -4 -44 6 -10 4
-12 -5 -6 -10 6 -12 4 -7 -9 4 -10 7 -20 7 -22 0 -3 5 -2 12 2 7 4 8 3 4 -5
-6 -9 -11 -9 -21 -1 -11 9 -12 7 -8 -9 3 -11 10 -18 16 -17 7 2 9 1 4 -1 -4
-3 -4 -10 -1 -15 4 -7 2 -8 -4 -4 -7 4 -12 1 -12 -8 0 -8 6 -14 12 -12 7 1 10
1 5 -1 -4 -3 -4 -10 -1 -15 4 -6 2 -8 -3 -5 -6 4 -14 0 -17 -9 -3 -8 -2 -13 2
-10 4 3 13 -4 20 -15 10 -16 10 -21 -3 -25 -14 -6 -14 -9 -1 -29 14 -21 13
-24 -7 -40 -12 -9 -17 -13 -11 -11 7 3 15 -1 18 -10 4 -12 2 -15 -9 -11 -8 4
-17 1 -21 -5 -4 -7 -3 -8 4 -4 7 4 12 3 12 -3 0 -6 6 -9 12 -7 7 1 10 1 5 -1
-4 -3 -4 -10 -1 -15 4 -7 2 -8 -4 -4 -7 4 -12 1 -12 -8 0 -8 6 -14 13 -12 6 1
9 1 4 -1 -4 -3 -4 -10 -1 -15 4 -6 2 -8 -3 -5 -6 4 -14 0 -17 -9 -3 -8 -2 -13
3 -10 5 3 12 -1 15 -10 3 -8 2 -12 -4 -9 -17 11 -11 -7 7 -21 14 -11 15 -13 2
-9 -17 6 -20 -19 -4 -44 6 -10 4 -12 -5 -6 -10 6 -12 4 -7 -9 4 -10 7 -20 7
-22 0 -3 5 -2 12 2 7 4 8 3 4 -5 -6 -9 -11 -9 -21 -1 -11 9 -12 7 -8 -9 3 -11
10 -18 16 -17 7 2 9 1 4 -1 -4 -3 -4 -10 -1 -15 4 -7 2 -8 -4 -4 -7 4 -12 1
-12 -8 0 -8 6 -14 12 -12 7 1 10 1 5 -1 -4 -3 -4 -10 -1 -15 4 -6 2 -8 -3 -5
-6 4 -14 0 -17 -9 -3 -8 -2 -13 2 -10 4 3 13 -4 20 -15 10 -16 10 -21 -3 -25
-14 -6 -14 -9 -1 -29 14 -21 13 -24 -7 -40 -12 -9 -17 -13 -11 -11 7 3 15 -1
18 -10 4 -12 2 -15 -9 -11 -8 4 -17 1 -21 -5 -4 -7 -3 -8 4 -4 7 4 12 3 12 -3
0 -6 6 -9 12 -7 7 1 10 1 5 -1 -4 -3 -4 -10 -1 -15 4 -7 2 -8 -4 -4 -7 4 -12
1 -12 -8 0 -8 6 -14 13 -12 6 1 9 1 4 -1 -4 -3 -4 -10 -1 -15 4 -6 2 -8 -3 -5
-6 4 -14 0 -17 -9 -3 -8 -2 -13 3 -10 5 3 12 -1 15 -10 3 -8 2 -12 -4 -9 -17
11 -11 -7 8 -21 13 -11 14 -13 1 -9 -17 6 -20 -19 -4 -44 6 -10 4 -12 -5 -6
-10 6 -12 4 -7 -9 4 -10 7 -20 7 -22 0 -3 5 -2 12 2 7 4 8 3 4 -5 -6 -9 -11
-9 -21 -1 -11 9 -12 7 -8 -9 3 -11 10 -18 16 -17 7 2 9 1 4 -1 -4 -3 -4 -10
-1 -15 4 -7 2 -8 -4 -4 -7 4 -12 1 -12 -8 0 -10 6 -13 18 -10 16 5 16 5 0 -6
-10 -6 -18 -16 -18 -23 0 -7 4 -6 10 3 8 11 9 5 5 -20 -3 -19 -11 -41 -18 -49
-9 -12 -9 -13 1 -7 7 4 12 2 12 -5 0 -7 8 -9 21 -6 16 4 18 3 8 -9 -6 -7 -15
-12 -18 -9 -4 2 -8 -3 -8 -11 0 -10 4 -11 11 -4 12 12 29 14 22 2 -3 -5 1 -9
9 -9 8 0 12 4 10 8 -3 4 2 9 10 12 10 4 12 1 9 -11 -4 -12 0 -11 14 6 12 13
23 18 27 12 3 -5 2 -10 -4 -10 -6 0 -7 -8 -4 -17 4 -9 8 -12 10 -6 2 6 18 9
38 6 26 -3 37 0 41 11 8 20 18 20 38 0 9 -8 16 -13 16 -9 0 3 8 1 19 -4 13 -7
23 -6 37 4 18 14 17 15 -12 10 -23 -3 -36 0 -45 13 -12 15 -12 16 1 6 19 -14
50 -14 50 0 1 6 14 -4 29 -22 19 -22 31 -30 36 -22 5 8 11 7 23 -2 15 -12 16
-11 3 5 -10 13 -17 15 -27 6 -8 -6 -14 -9 -14 -6 0 3 -3 12 -6 21 -3 9 -1 16
6 16 6 0 9 -4 5 -9 -3 -6 3 -10 12 -10 10 0 30 -2 45 -5 17 -3 27 0 25 7 -1 7
4 11 11 9 8 -1 11 2 8 7 -4 5 -2 12 4 16 5 3 10 11 10 18 0 6 -6 3 -12 -5 -12
-16 -14 -16 -28 0 -13 14 -13 15 0 11 8 -3 24 3 34 14 16 17 17 19 3 14 -9 -3
-17 -2 -17 2 0 5 4 11 9 13 5 2 2 10 -7 18 -14 13 -15 12 -9 -3 9 -24 0 -21
-13 4 -8 15 -8 24 0 34 8 9 8 15 0 18 -6 3 -5 4 2 3 14 -3 37 22 37 39 0 6 -4
2 -10 -7 -14 -25 -28 -22 -21 4 4 16 2 19 -9 13 -11 -6 -12 -5 -1 6 16 17 16
32 0 23 -10 -6 -10 -4 -2 7 15 20 16 61 1 52 -7 -4 -6 0 2 10 7 9 11 28 9 42
-4 18 -1 25 11 25 14 1 14 2 -1 10 -11 7 -15 19 -11 41 3 24 1 29 -9 24 -10
-6 -11 -5 0 6 15 16 16 33 0 23 -7 -4 -8 -3 -4 4 4 8 15 8 31 2 37 -14 30 -2
-7 14 -18 8 -27 15 -19 15 11 1 11 4 1 16 -10 12 -8 14 9 10 12 -2 21 0 21 6
0 5 -10 9 -22 10 -20 0 -21 1 -5 8 10 4 18 10 18 14 -3 22 1 26 17 21 14 -5
14 -4 -2 6 -15 10 -16 14 -5 21 11 7 10 9 -5 9 -11 0 -16 -5 -13 -13 3 -7 -1
-21 -9 -32 -8 -10 -14 -14 -14 -8 0 7 5 15 10 18 7 4 7 13 0 26 -12 21 -6 39
13 38 9 0 9 -2 0 -6 -7 -2 -13 -9 -13 -15 0 -6 6 -5 15 2 13 11 14 15 1 29 -7
9 -12 26 -10 39 3 17 0 21 -8 16 -9 -5 -9 -2 1 9 7 9 9 17 4 17 -5 0 -9 10
-10 23 -2 21 -1 21 12 -3 7 -14 11 -28 9 -32 -2 -3 -1 -9 4 -12 4 -2 8 4 9 14
1 11 -3 22 -8 26 -6 4 -4 13 5 23 14 15 14 18 1 18 -8 0 -11 -5 -8 -10 4 -6 1
-7 -6 -2 -9 5 -10 10 -2 18 16 16 13 27 -6 20 -11 -4 -14 -3 -9 5 4 7 17 12
29 13 21 0 21 1 2 9 -11 5 -16 9 -12 9 4 1 3 10 -3 20 -7 14 -7 22 0 26 6 4 8
11 4 16 -3 5 -10 6 -16 3 -7 -4 -8 -2 -4 5 6 9 11 9 22 0 11 -9 14 -8 14 4 0
8 -6 18 -12 20 -7 3 -2 6 12 6 19 1 22 3 10 10 -8 6 -18 7 -24 4 -5 -3 -6 -1
-2 6 4 6 12 9 17 6 5 -4 9 -2 9 4 0 6 8 8 18 5 14 -5 14 -4 2 4 -8 6 -19 8
-25 5 -5 -4 -7 -3 -3 2 4 4 2 15 -5 24 -11 14 -10 14 6 2 10 -8 17 -9 17 -3 0
6 -5 14 -10 17 -7 4 -7 11 -2 18 5 7 8 19 7 28 -2 9 3 16 11 16 10 0 11 -4 3
-14 -6 -7 -8 -13 -4 -13 4 0 1 -8 -6 -17 -7 -10 -9 -15 -5 -11 5 4 16 2 25 -5
13 -10 14 -10 5 3 -9 13 -11 31 -4 45 1 3 3 11 4 18 1 6 8 11 16 9 11 -3 11
-1 0 13 -17 21 -21 43 -10 50 5 3 7 -3 5 -14 -2 -14 1 -18 10 -15 8 3 11 12 8
20 -4 10 0 12 11 8 12 -5 15 -2 9 12 -5 13 -3 15 8 9 11 -7 11 -5 -1 10 -14
17 -13 18 10 12 24 -6 24 -6 5 10 -16 13 -17 14 -2 9 24 -9 43 -13 35 -9 -5 3
-8 14 -8 24 0 11 5 17 10 14 6 -4 8 -11 5 -16 -4 -5 2 -6 11 -2 11 4 13 8 6
11 -7 2 -12 8 -12 13 0 4 7 5 17 2 12 -5 14 -3 8 8 -8 12 -6 12 9 0 15 -13 19
-11 33 9 16 22 17 22 30 4 14 -18 14 -18 11 1 -2 16 2 20 25 18 15 -1 27 2 27
8 0 6 -4 7 -10 4 -5 -3 -10 -1 -10 4 0 14 6 14 33 -1 32 -17 70 -16 84 1 10
14 12 14 18 -2 5 -12 14 -16 29 -12 20 6 20 5 2 -6 -16 -10 -22 -9 -33 7 -7
10 -13 13 -13 7 0 -17 26 -34 43 -27 8 3 18 0 23 -7 4 -8 3 -10 -4 -5 -8 5
-10 2 -6 -9 6 -14 8 -14 19 1 11 16 12 16 18 0 4 -10 3 -15 -3 -11 -6 3 -10 1
-10 -4 0 -6 8 -11 19 -11 10 0 25 -8 32 -17 10 -11 10 -14 2 -9 -7 4 -13 2
-13 -3 0 -6 7 -11 16 -11 11 0 14 -5 10 -16 -5 -12 -2 -15 10 -10 14 5 15 4 4
-9 -9 -11 -10 -19 -3 -26 8 -8 13 -7 18 2 5 8 4 10 -3 5 -7 -4 -12 -2 -12 4 0
7 6 10 12 8 8 -3 13 -23 13 -49 0 -31 4 -43 13 -41 8 1 11 -2 7 -7 -3 -6 -13
-8 -23 -5 -15 5 -15 4 -2 -8 8 -7 17 -22 18 -33 2 -11 11 -28 19 -37 14 -16
14 -17 -6 -13 -11 2 -24 -1 -27 -7 -4 -6 -2 -8 4 -4 7 4 10 -4 10 -21 -2 -41
12 -84 25 -76 6 3 7 1 3 -6 -4 -6 -11 -9 -15 -7 -4 3 -13 0 -21 -6 -13 -8 -13
-9 1 -5 9 3 22 1 30 -4 11 -7 9 -9 -8 -9 -13 0 -23 -4 -23 -10 0 -5 7 -7 15
-3 9 3 15 2 14 -3 -4 -22 2 -35 13 -28 7 4 8 3 4 -4 -4 -6 -13 -9 -21 -6 -8 4
-12 11 -8 17 3 6 1 7 -6 3 -9 -6 -9 -11 1 -23 6 -8 13 -22 14 -31 2 -8 9 -19
16 -23 9 -6 9 -9 1 -9 -6 0 -15 5 -18 10 -10 16 -23 11 -20 -7 1 -10 -2 -26
-7 -36 -5 -9 -5 -17 -1 -16 23 4 35 -2 29 -16 -3 -8 2 -19 12 -24 14 -9 14
-11 2 -12 -8 -1 -17 -1 -21 -1 -3 0 -11 -8 -18 -20 -7 -11 -8 -17 -2 -14 5 4
12 2 16 -4 3 -6 -1 -13 -9 -16 -9 -3 -16 -11 -16 -16 0 -6 7 -5 15 2 13 11 18
10 29 -6 8 -10 12 -21 10 -24 -3 -2 -9 2 -14 10 -10 16 -17 13 -20 -10 -4 -26
0 -41 9 -36 4 3 7 -7 6 -22 -3 -43 -4 -45 -19 -33 -10 8 -16 9 -21 1 -4 -6 -1
-9 7 -8 8 2 13 -7 14 -25 1 -16 7 -33 15 -38 8 -5 9 -9 3 -9 -18 0 -24 -38 -8
-51 8 -6 12 -15 9 -19 -3 -5 2 -16 11 -24 8 -9 11 -16 5 -16 -5 0 -13 4 -16
10 -10 16 -23 11 -20 -7 1 -10 -2 -26 -7 -36 -5 -9 -5 -17 -1 -16 18 3 33 -2
33 -11 0 -5 -7 -7 -15 -4 -11 5 -13 2 -9 -10 3 -9 11 -13 18 -9 6 4 5 -1 -3
-10 -12 -16 -12 -17 5 -11 14 4 16 3 5 -4 -11 -8 -10 -12 5 -22 13 -7 14 -10
3 -7 -11 4 -21 -6 -31 -29 -8 -18 -11 -31 -7 -28 5 3 9 0 9 -6 0 -7 7 -10 15
-6 8 3 14 0 12 -6 -1 -7 3 -12 10 -13 6 0 15 -4 20 -8 4 -5 1 -7 -7 -5 -8 2
-15 -5 -16 -17 -1 -15 5 -20 25 -21 14 -1 35 -4 46 -9 16 -5 17 -5 5 4 -13 9
-13 12 -1 23 8 7 11 8 8 2 -3 -5 7 -15 23 -21 23 -8 33 -8 47 3 16 13 15 14
-14 9 -17 -3 -34 -2 -37 3 -6 11 81 9 91 -2 5 -5 2 -6 -6 -1 -9 5 -12 4 -7 -3
4 -7 2 -12 -5 -12 -7 0 -9 -3 -6 -6 4 -4 13 -2 20 4 10 9 19 7 38 -5 23 -16
23 -16 9 2 -14 17 -13 18 4 12 16 -6 17 -5 7 7 -10 12 -9 14 8 9 13 -3 18 -11
16 -25 -4 -16 -2 -18 10 -8 8 7 12 17 8 22 -3 6 0 8 8 6 8 -3 13 -11 11 -17
-1 -7 2 -10 8 -6 6 3 8 10 6 14 -3 4 1 8 9 8 8 0 12 -4 10 -8 -3 -3 3 -13 13
-20 15 -13 16 -12 3 4 -13 17 -12 18 12 12 17 -5 27 -3 27 4 0 6 -6 8 -13 5
-8 -3 -20 3 -28 13 -13 16 -12 17 2 5 17 -13 53 -6 43 9 -3 5 1 6 9 3 17 -6
31 22 15 32 -7 4 -8 3 -4 -4 4 -7 2 -12 -3 -12 -16 0 -14 8 9 40 13 18 17 31
10 35 -6 4 -8 11 -5 16 3 5 -1 6 -9 3 -9 -3 -16 -1 -16 5 0 10 14 15 33 12 16
-3 -5 20 -27 29 -15 6 -16 9 -5 9 20 1 32 28 17 37 -6 4 -8 3 -4 -4 3 -6 1
-14 -5 -18 -7 -4 -9 -3 -5 4 3 6 2 13 -4 17 -6 4 -7 12 -3 18 4 7 8 15 8 19 0
3 3 10 7 14 4 3 6 -3 3 -15 -4 -22 9 -29 20 -11 3 6 1 10 -4 10 -6 0 -10 3
-10 8 4 21 -3 32 -18 33 -15 0 -15 2 2 8 11 5 25 6 30 3 6 -3 4 2 -4 11 -10
13 -10 17 -1 17 9 0 10 3 1 13 -6 8 -7 18 -3 22 4 5 2 5 -5 1 -7 -4 -10 -13
-6 -21 3 -8 0 -15 -5 -15 -16 0 -24 18 -12 25 6 4 8 11 5 16 -6 8 9 13 28 10
16 -3 -5 20 -27 29 -15 6 -16 9 -5 9 20 1 32 28 17 37 -6 4 -8 3 -4 -4 3 -6 1
-14 -5 -18 -7 -4 -9 -3 -5 4 3 6 2 13 -4 17 -6 4 -7 12 -3 18 4 7 8 15 8 19 0
3 3 10 7 14 4 3 6 -3 3 -15 -4 -22 9 -29 20 -11 3 6 1 10 -4 10 -6 0 -10 3
-10 8 4 21 -3 32 -18 33 -15 0 -15 2 2 8 11 5 25 6 30 3 6 -3 4 2 -4 11 -9 11
-10 17 -2 17 21 0 11 16 -11 17 -18 2 -20 0 -8 -7 9 -6 10 -10 3 -10 -19 0
-26 20 -9 26 9 3 16 10 16 16 0 5 -5 6 -12 2 -7 -4 -8 -3 -4 5 6 8 12 9 20 2
9 -8 13 -7 13 4 0 8 -3 12 -6 10 -4 -2 -15 4 -26 12 -19 15 -19 15 5 9 24 -7
25 -7 5 10 -20 16 -20 16 3 9 13 -4 22 -2 22 4 0 6 -3 10 -7 10 -5 -1 -15 -1
-23 0 -13 1 -13 3 0 10 8 6 17 8 20 6 4 -2 7 3 7 11 0 10 -4 11 -11 4 -16 -16
-22 -12 -22 14 0 14 4 22 8 20 5 -3 5 -10 2 -16 -4 -6 -3 -8 3 -5 5 3 8 23 6
43 -1 21 3 44 10 53 10 12 9 13 -2 6 -11 -6 -13 -3 -9 13 7 25 -1 28 -22 10
-12 -11 -12 -10 -2 3 6 9 9 19 5 22 -3 4 -2 7 4 7 13 0 12 82 -2 93 -6 5 -4 7
5 4 8 -2 14 -10 12 -17 -2 -10 0 -11 11 -2 8 7 16 11 18 9 3 -1 -3 6 -14 15
-19 18 -19 49 1 84 6 12 8 24 5 28 -3 3 -1 6 6 6 7 0 11 -7 8 -14 -4 -10 -1
-13 9 -9 10 4 12 9 4 18 -7 9 -6 16 5 25 12 10 13 16 4 26 -9 11 -7 14 7 15
11 1 22 1 26 0 8 -1 5 20 -5 36 -6 9 -3 11 9 6 12 -4 15 -3 10 5 -4 7 -1 12 8
12 9 0 16 4 16 10 0 5 -8 7 -17 4 -15 -5 -15 -4 -3 4 9 7 18 8 26 1 8 -7 14
-6 19 1 3 6 11 7 17 4 7 -4 8 -2 4 4 -4 7 -3 12 2 12 5 0 9 6 9 14 0 8 -6 12
-14 9 -7 -3 -13 -1 -13 5 0 12 53 10 63 -3 5 -6 7 -4 5 4 -2 8 -12 15 -22 17
-10 1 -21 5 -24 9 -4 3 8 3 27 0 23 -4 31 -2 25 6 -4 8 -3 9 5 5 6 -4 9 -11 6
-16 -3 -4 3 -14 13 -21 15 -12 16 -12 5 2 -7 9 -10 19 -6 22 3 4 0 15 -8 24
-9 12 -5 11 11 -3 18 -16 31 -19 45 -14 11 5 16 9 11 9 -12 1 25 30 38 31 6 0
2 -6 -7 -12 -13 -10 -14 -17 -6 -28 9 -13 10 -12 5 3 -3 9 -1 17 3 17 5 0 11
-6 14 -12 3 -10 7 -10 20 0 9 8 21 11 28 7 8 -6 7 -10 -2 -17 -11 -8 -11 -9 1
-5 8 2 14 10 13 16 -2 6 2 11 7 11 9 0 14 -13 12 -31 -1 -3 6 -6 13 -6 11 0
12 4 3 14 -6 7 -8 16 -4 20 3 3 6 1 6 -6 0 -7 5 -9 10 -6 6 3 10 1 10 -5 0 -6
5 -8 13 -4 8 5 7 2 -2 -9 -8 -10 -11 -20 -7 -24 3 -3 6 0 6 8 0 12 2 11 10 -1
8 -12 12 -13 19 -2 7 11 9 10 15 -3 3 -9 11 -13 17 -9 8 4 9 3 5 -5 -6 -9 -11
-9 -21 -1 -12 10 -14 2 -6 -28 1 -1 10 2 20 7 17 9 18 8 13 -12 -5 -20 -4 -21
11 -8 15 12 17 12 11 -4 -6 -14 -4 -16 6 -10 9 5 11 4 6 -4 -4 -6 -12 -9 -17
-6 -5 3 -6 -1 -3 -9 3 -9 10 -14 15 -11 4 3 13 -3 18 -14 14 -25 14 -31 1 -31
-5 0 -9 3 -9 8 3 19 -3 28 -20 28 -11 0 -17 -4 -15 -8 3 -4 11 -8 18 -8 15 0
17 -30 4 -47 -7 -9 -4 -11 9 -8 11 2 26 -1 34 -7 11 -8 11 -9 -3 -4 -21 6 -34
-10 -13 -18 9 -3 12 -12 8 -22 -5 -13 -3 -15 8 -10 8 4 5 0 -5 -8 -20 -16 -20
-16 0 -17 10 0 13 -3 7 -6 -7 -2 -13 -11 -13 -19 0 -9 4 -13 8 -10 11 7 8 -31
-3 -41 -4 -5 -5 -3 -1 4 3 6 3 14 -2 17 -4 2 -8 -6 -8 -19 0 -13 3 -22 7 -19
4 2 10 0 13 -5 3 -5 -1 -11 -9 -15 -8 -3 -15 -11 -15 -18 0 -9 3 -9 10 2 7 12
11 12 20 2 5 -6 7 -10 3 -7 -9 7 -32 -29 -29 -47 1 -9 8 -24 16 -34 13 -16 13
-17 0 -12 -11 4 -16 -1 -18 -15 -1 -17 1 -19 8 -7 7 12 11 12 20 2 5 -6 7 -10
3 -7 -9 7 -32 -29 -29 -47 1 -9 8 -24 16 -34 13 -16 13 -17 0 -12 -11 4 -16
-1 -17 -16 0 -11 1 -15 4 -8 3 6 10 12 16 12 5 0 7 -3 4 -7 -4 -3 -2 -12 3
-19 8 -9 6 -12 -7 -10 -18 1 -28 -40 -12 -49 4 -3 6 7 3 22 -3 15 -2 25 1 21
4 -3 7 -12 9 -20 1 -7 6 -19 10 -27 6 -10 5 -12 -2 -7 -7 4 -12 2 -12 -4 0 -6
-4 -9 -8 -6 -4 2 -8 -5 -9 -17 0 -12 1 -16 4 -9 3 6 10 12 16 12 5 0 7 -3 4
-7 -4 -3 -2 -12 3 -19 8 -9 6 -12 -7 -10 -18 1 -28 -40 -12 -49 4 -3 6 7 3 22
-3 15 -2 25 1 21 4 -3 7 -12 9 -20 1 -7 6 -19 10 -27 6 -10 5 -12 -2 -7 -7 4
-12 2 -12 -4 0 -6 -4 -9 -8 -6 -5 3 -9 -1 -9 -8 0 -9 7 -12 16 -8 9 3 13 2 9
-3 -4 -4 -2 -15 5 -23 8 -10 8 -13 1 -9 -7 4 -15 0 -18 -9 -8 -21 -8 -26 2
-20 4 2 8 -16 8 -40 0 -28 -5 -43 -11 -40 -6 2 -12 -6 -13 -17 -1 -17 1 -19 8
-7 6 9 12 11 17 5 5 -6 6 -9 4 -8 -5 3 -30 -29 -31 -39 0 -5 6 -8 14 -8 8 0
17 -4 21 -9 3 -6 -4 -8 -16 -6 -21 4 -21 4 -3 -17 16 -18 16 -20 2 -15 -16 6
-20 -14 -5 -29 3 -4 2 -15 -3 -25 -8 -13 -6 -20 7 -28 17 -10 17 -10 1 -11
-10 0 -18 -4 -18 -10 0 -5 6 -7 13 -4 15 5 21 -33 6 -41 -12 -8 -2 -25 14 -25
8 0 8 3 -2 9 -9 6 -6 8 12 8 14 0 28 -6 32 -15 4 -12 3 -13 -10 -2 -10 8 -15
9 -15 1 0 -11 4 -13 38 -14 9 -1 22 -8 28 -16 8 -11 13 -11 18 -2 6 9 11 9 24
-1 12 -10 12 -7 -2 15 -22 33 -15 35 15 5 12 -13 19 -17 15 -10 -6 9 -1 11 18
8 14 -3 30 2 37 10 12 15 29 10 29 -9 0 -7 -4 -6 -10 3 -8 13 -10 12 -10 -2 0
-18 11 -23 24 -11 12 13 48 14 40 1 -4 -7 -3 -8 5 -4 6 4 9 12 6 17 -4 5 -1 9
5 9 6 0 8 5 4 12 -4 7 -3 8 4 4 6 -4 9 -13 6 -20 -3 -9 2 -13 18 -12 13 1 30
-1 39 -5 10 -5 16 -3 16 5 0 9 -11 12 -31 10 -22 -3 -27 -1 -16 5 8 6 18 7 22
4 5 -2 16 1 25 9 12 9 15 9 9 1 -4 -8 -2 -13 4 -13 6 0 8 -4 5 -10 -3 -6 -1
-10 4 -10 15 0 14 33 -1 49 -7 8 -1 6 13 -3 22 -14 26 -14 26 -1 0 8 -7 15
-16 16 -10 0 -8 4 7 9 26 11 29 30 5 30 -15 0 -16 -2 -3 -10 13 -8 13 -10 -2
-10 -10 0 -16 7 -15 19 1 12 7 17 17 14 8 -3 4 5 -10 17 -23 21 -24 22 -3 16
18 -6 21 -4 15 16 -5 21 -4 22 14 8 18 -14 18 -14 3 5 -9 11 -14 26 -12 33 3
6 -2 12 -9 12 -8 0 -15 7 -15 15 0 11 4 12 11 5 5 -5 15 -10 20 -10 6 0 4 5
-4 10 -13 8 -13 13 -2 31 8 11 9 19 4 15 -5 -3 -9 8 -10 23 0 25 3 28 21 24
16 -4 14 0 -8 12 -39 21 -45 29 -18 22 13 -3 26 -1 29 4 3 5 2 9 -3 8 -29 -5
-40 3 -38 29 0 15 6 27 12 27 6 0 15 4 20 9 4 5 3 6 -3 3 -7 -4 -11 5 -12 23
0 23 3 28 16 23 9 -3 6 3 -8 13 -22 17 -40 71 -19 58 5 -3 7 -9 4 -14 -3 -4 3
-14 13 -21 16 -13 16 -13 2 5 -14 18 -13 19 5 13 20 -7 20 -7 0 8 -17 13 -18
18 -7 36 8 12 9 19 4 15 -5 -3 -9 8 -10 23 0 25 3 28 21 24 16 -4 14 0 -8 12
-39 21 -45 29 -18 22 13 -3 26 -1 29 4 3 5 2 9 -3 8 -29 -5 -40 3 -38 29 0 15
6 27 12 27 6 0 15 4 20 9 4 5 3 6 -3 3 -7 -4 -11 5 -12 23 0 23 3 28 16 23 9
-3 6 3 -8 13 -22 17 -40 71 -19 58 5 -3 7 -9 4 -14 -3 -4 3 -14 13 -21 16 -13
16 -13 2 5 -14 18 -13 19 5 13 20 -7 20 -7 0 8 -17 13 -18 18 -7 36 8 12 9 19
4 15 -5 -3 -9 8 -10 23 0 25 3 28 21 24 16 -4 14 0 -8 12 -39 21 -45 29 -18
22 13 -3 26 -1 29 4 3 5 2 9 -3 8 -23 -4 -40 3 -40 16 0 10 4 12 12 5 13 -11
25 -3 25 14 0 6 -5 4 -10 -4 -9 -13 -10 -13 -10 0 0 9 5 21 10 26 7 7 6 11 -4
11 -8 0 -13 -4 -10 -8 2 -4 -1 -11 -8 -15 -7 -4 -10 -4 -6 1 4 4 2 15 -5 23
-6 9 -7 13 -2 10 6 -4 17 -3 24 1 11 7 11 13 1 27 -10 16 -11 16 -6 2 3 -10 1
-18 -4 -18 -13 0 -13 16 1 41 8 16 6 26 -7 47 l-17 27 22 -19 c22 -20 22 -20
15 0 -4 10 -16 25 -27 33 -12 8 -15 16 -8 20 5 4 12 24 14 44 3 27 1 35 -6 28
-6 -6 -15 -11 -20 -11 -5 0 -2 7 6 15 12 12 13 20 4 39 -7 13 -14 23 -17 21
-3 -2 -7 5 -7 16 -1 10 2 19 8 19 5 0 9 5 9 11 0 5 -4 7 -10 4 -5 -3 -10 -1
-10 5 0 6 -5 8 -12 4 -6 -4 -8 -3 -4 4 3 6 2 13 -4 17 -5 3 -10 12 -10 18 0 8
3 8 9 -2 5 -7 11 -9 14 -4 4 6 -4 15 -18 21 -18 8 -22 16 -17 34 5 21 4 22
-11 9 -15 -12 -17 -12 -11 4 5 11 1 21 -10 27 -11 6 -15 18 -12 35 5 25 5 25
-15 7 -11 -10 -19 -14 -17 -9 4 14 -50 65 -68 65 -8 0 -12 5 -9 10 6 9 -6 13
-46 13 -9 0 -16 6 -17 13 -1 8 -3 21 -4 29 -1 8 -5 12 -9 9 -4 -2 -10 2 -12 8
-4 9 -6 10 -6 1 -1 -6 3 -15 9 -18 6 -3 10 -11 10 -17 0 -6 -8 -1 -19 10 -20
24 -46 29 -55 10 -4 -9 -5 -8 -4 2 1 8 -2 23 -7 33 -7 17 -9 17 -26 1 -21 -19
-26 -6 -6 15 10 11 8 11 -10 0 -12 -7 -21 -15 -20 -18 1 -4 -1 -7 -6 -8 -19
-7 -19 -1 1 20 17 18 19 24 8 24 -8 0 -13 -4 -10 -9 3 -4 1 -8 -5 -8 -5 0 -12
6 -15 13 -3 6 -4 3 -3 -8 1 -15 -4 -20 -23 -20 -29 -1 -61 15 -54 27 3 4 0 8
-5 8 -6 0 -11 -4 -11 -9 0 -5 -14 -14 -31 -21 -24 -10 -32 -10 -42 0 -10 10
-7 11 10 5 18 -5 22 -3 17 9 -7 18 -25 17 -41 -4 -8 -11 -8 -17 0 -22 7 -4 -2
-6 -18 -4 -17 2 -34 -2 -38 -8 -6 -7 -7 -4 -3 7 3 10 2 15 -3 12 -5 -3 -12 -1
-16 5 -3 5 -1 10 6 10 7 0 10 3 6 6 -10 10 -28 -7 -20 -19 18 -29 -1 -47 -24
-22 -4 4 -2 5 5 1 6 -4 12 -2 12 3 0 15 -11 13 -34 -4 -11 -8 -27 -15 -35 -15
-14 0 -14 2 -1 11 13 9 13 10 0 6 -9 -2 -14 -13 -12 -27 3 -19 2 -20 -11 -9
-8 8 -12 18 -9 23 3 5 0 6 -6 2 -8 -5 -9 -13 -3 -25 7 -13 6 -18 -4 -18 -8 0
-12 3 -10 7 2 3 -8 6 -23 7 -15 0 -20 -1 -10 -4 27 -7 30 -31 3 -26 -17 4 -24
-1 -28 -18 -5 -20 -8 -21 -23 -8 -12 9 -15 10 -10 2 4 -8 1 -13 -8 -14 -30 -3
-34 -4 -43 -13 -4 -5 -3 -6 3 -3 7 4 14 0 18 -8 4 -10 -1 -14 -17 -12 -16 1
-22 -3 -22 -17 0 -11 -8 -20 -19 -22 -10 -1 -24 -8 -30 -14 -8 -9 -5 -11 14
-6 21 6 22 5 7 -4 -10 -7 -25 -9 -32 -6 -8 3 -17 0 -21 -6 -4 -6 -3 -8 4 -4
16 10 26 -13 12 -29 -12 -14 -52 -17 -44 -3 3 4 1 8 -5 8 -5 0 -12 -6 -15 -12
-3 -7 -3 -2 0 11 5 19 3 23 -9 18 -11 -4 -14 0 -12 18 1 14 -2 22 -7 19 -5 -3
-8 2 -6 12 2 12 -6 23 -19 29 -16 7 -21 16 -18 30 3 11 2 14 -1 7 -3 -6 -11
-9 -16 -6 -6 4 -8 2 -4 -4 3 -6 2 -14 -4 -17 -6 -4 -10 -3 -9 2 4 22 -2 34
-13 27 -8 -5 -7 0 2 11 9 11 10 16 3 11 -13 -7 -17 3 -14 34 1 10 -1 11 -6 4
-4 -6 -16 -13 -25 -17 -13 -4 -15 -2 -11 10 5 12 1 14 -15 9 -17 -6 -21 -4
-16 7 8 21 -14 31 -32 16 -8 -7 -14 -8 -13 -3 1 5 1 16 0 24 -1 12 -4 11 -12
-3 -15 -25 -32 -11 -18 16 11 21 11 21 -7 5 -19 -16 -20 -16 -34 5 -8 12 -14
25 -13 28 1 3 -4 6 -12 6 -8 0 -12 -4 -9 -9 3 -4 0 -8 -5 -8 -6 0 -11 4 -11 8
0 4 -9 8 -20 9 -16 1 -19 -3 -16 -22 4 -21 2 -23 -19 -15 -12 5 -25 6 -28 4
-3 -3 -14 -1 -25 5 -15 8 -23 7 -32 -4 -7 -8 -17 -15 -23 -15 -6 0 -1 8 13 17
26 19 63 25 53 10 -3 -5 0 -8 6 -6 34 12 9 24 -46 25 -35 0 -63 -3 -63 -7z
m219 -15 c11 7 36 -22 27 -31 -3 -3 -6 -1 -6 7 0 10 -4 10 -17 -1 -11 -10 -14
-10 -9 -1 4 6 3 12 -1 12 -5 0 -15 -6 -23 -12 -8 -7 -12 -9 -8 -4 4 5 3 17 -3
28 -10 18 -8 18 10 8 12 -6 25 -9 30 -6z m942 -27 c-10 -9 -11 -8 -5 6 3 10 9
15 12 12 3 -3 0 -11 -7 -18z m179 -2 c0 -8 -4 -15 -8 -15 -5 0 -9 7 -9 15 0 8
4 15 9 15 4 0 8 -7 8 -15z m-980 -29 c0 -3 -4 -8 -10 -11 -5 -3 -10 -1 -10 4
0 6 5 11 10 11 6 0 10 -2 10 -4z m-780 -46 c0 -4 -8 -14 -17 -21 -16 -12 -17
-12 -6 2 10 12 10 18 0 28 -9 10 -8 11 6 6 9 -4 17 -11 17 -15z m-425 -20 c3
-5 -1 -10 -10 -10 -9 0 -13 5 -10 10 3 6 8 10 10 10 2 0 7 -4 10 -10z m1369
-69 c4 -5 -3 -7 -14 -4 -23 6 -26 13 -6 13 8 0 17 -4 20 -9z m-541 -215 c11 1
16 0 13 -4 -13 -12 -36 -10 -48 6 -11 15 -11 15 2 6 8 -6 23 -10 33 -8z m1082
5 c3 -5 2 -12 -3 -15 -5 -3 -9 1 -9 9 0 17 3 19 12 6z m-85 -16 c0 -12 -19
-12 -23 0 -4 9 -1 12 9 8 7 -3 14 -7 14 -8z m-1155 -25 c-10 -11 -20 -18 -22
-16 -6 5 30 44 36 39 2 -1 -4 -12 -14 -23z m1025 -45 c0 -1 -7 -8 -15 -15 -13
-11 -14 -10 -9 4 5 12 2 15 -12 10 -15 -5 -16 -4 -5 4 12 8 41 6 41 -3z
m-1170 -55 c0 -5 -5 -10 -11 -10 -5 0 -7 5 -4 10 3 6 8 10 11 10 2 0 4 -4 4
-10z m1085 -30 c-3 -5 -11 -10 -16 -10 -6 0 -7 5 -4 10 3 6 11 10 16 10 6 0 7
-4 4 -10z m973 -56 c-3 -14 -5 -12 -10 9 -3 19 -2 25 4 19 6 -6 8 -18 6 -28z
m-2093 6 c-3 -5 -11 -10 -16 -10 -6 0 -7 5 -4 10 3 6 11 10 16 10 6 0 7 -4 4
-10z m1085 -5 c-7 -8 -17 -15 -22 -15 -11 0 14 29 26 30 5 0 3 -7 -4 -15z
m580 1 c0 -2 -7 -7 -16 -10 -8 -3 -12 -2 -9 4 6 10 25 14 25 6z m-1063 -172
c-3 -3 -12 -4 -19 -1 -8 3 -5 6 6 6 11 1 17 -2 13 -5z m-7 -24 c0 -5 -5 -10
-11 -10 -5 0 -7 5 -4 10 3 6 8 10 11 10 2 0 4 -4 4 -10z m1517 -26 c-3 -3 -12
-4 -19 -1 -8 3 -5 6 6 6 11 1 17 -2 13 -5z m-2 -23 c3 -5 2 -12 -3 -15 -5 -3
-9 1 -9 9 0 17 3 19 12 6z m-438 -28 c-4 -3 -2 -11 3 -18 7 -8 6 -12 -3 -12
-7 0 -14 9 -14 19 -1 10 3 18 9 18 6 0 8 -3 5 -7z m-637 -38 c0 -12 -19 -12
-23 0 -4 9 -1 12 9 8 7 -3 14 -7 14 -8z m-5 -34 c3 -5 2 -12 -3 -15 -5 -3 -9
1 -9 9 0 17 3 19 12 6z m1082 -37 c-3 -3 -12 -4 -19 -1 -8 3 -5 6 6 6 11 1 17
-2 13 -5z m-440 -11 c-4 -3 -2 -11 3 -18 7 -8 6 -12 -3 -12 -7 0 -14 9 -14 19
-1 10 3 18 9 18 6 0 8 -3 5 -7z m-1075 -31 c-7 -2 -10 -8 -6 -13 3 -5 1 -9 -5
-9 -5 0 -9 9 -8 19 1 12 6 17 16 13 10 -4 11 -7 3 -10z m13 -112 c3 -5 1 -10
-4 -10 -6 0 -11 5 -11 10 0 6 2 10 4 10 3 0 8 -4 11 -10z m1502 -6 c-3 -3 -12
-4 -19 -1 -8 3 -5 6 6 6 11 1 17 -2 13 -5z m-2 -23 c3 -5 2 -12 -3 -15 -5 -3
-9 1 -9 9 0 17 3 19 12 6z m-1508 -57 c-3 -3 -12 -4 -19 -1 -8 3 -5 6 6 6 11
1 17 -2 13 -5z m-6 -97 c-10 -9 -11 -8 -5 6 3 10 9 15 12 12 3 -3 0 -11 -7
-18z m1516 17 c-3 -3 -12 -4 -19 -1 -8 3 -5 6 6 6 11 1 17 -2 13 -5z m-1512
-44 c3 -6 -1 -7 -9 -4 -18 7 -21 14 -7 14 6 0 13 -4 16 -10z m-2 -57 c-5 -12
-3 -14 7 -8 8 5 11 4 6 -3 -9 -16 -36 -3 -29 14 3 8 9 14 14 14 4 0 5 -7 2
-17z m1514 -59 c-3 -3 -12 -4 -19 -1 -8 3 -5 6 6 6 11 1 17 -2 13 -5z m-2 -23
c3 -5 2 -12 -3 -15 -5 -3 -9 1 -9 9 0 17 3 19 12 6z m-1513 -19 c-7 -2 -10 -8
-6 -13 3 -5 1 -9 -5 -9 -5 0 -9 9 -8 19 1 12 6 17 16 13 10 -4 11 -7 3 -10z
m1083 -92 c3 -6 -1 -7 -9 -4 -18 7 -21 14 -7 14 6 0 13 -4 16 -10z m-640 -51
c-4 -5 -12 -9 -18 -8 -9 0 -8 2 1 6 6 2 9 10 6 15 -4 7 -2 8 5 4 6 -4 9 -12 6
-17z m-1100 -29 c3 -5 1 -10 -4 -10 -6 0 -11 5 -11 10 0 6 2 10 4 10 3 0 8 -4
11 -10z m-19 -68 c-15 -15 -17 -15 -33 2 -10 10 -13 16 -8 13 6 -3 17 -2 25 3
22 13 34 0 16 -18z m-281 9 c3 -5 2 -12 -3 -15 -5 -3 -9 1 -9 9 0 17 3 19 12
6z m1192 -8 c0 -9 -4 -10 -14 -2 -7 6 -13 12 -13 14 0 1 6 2 13 2 8 0 14 -6
14 -14z m1118 5 c5 4 5 1 1 -6 -6 -10 -11 -10 -22 -1 -8 6 -14 14 -14 16 0 3
6 0 13 -6 8 -6 18 -7 22 -3z m-2271 -10 c-3 -4 -9 -8 -15 -8 -5 0 -9 4 -9 8 0
5 7 9 15 9 8 0 12 -4 9 -9z m982 -1 c4 -3 -4 -4 -16 -2 -30 6 -40 16 -12 12
12 -2 24 -6 28 -10z m1109 3 c-3 -5 -1 -10 5 -10 6 0 8 -5 4 -11 -4 -8 -9 -7
-15 2 -12 19 -11 29 2 29 5 0 7 -4 4 -10z m101 -2 c3 -4 -1 -5 -10 -4 -8 1
-18 5 -22 8 -3 4 1 5 10 4 8 -1 18 -5 22 -8z"/>
<path d="M480 540 c-9 -6 -10 -10 -3 -10 6 0 15 5 18 10 8 12 4 12 -15 0z"/>
<path d="M1063 2315 c0 -8 6 -15 13 -15 8 0 11 6 8 15 -4 8 -9 15 -13 15 -4 0
-8 -7 -8 -15z"/>
<path d="M1956 2321 c-3 -4 -1 -13 5 -21 6 -10 9 -11 9 -2 0 6 3 11 8 10 4 -2
9 1 12 6 6 11 -28 18 -34 7z"/>
<path d="M2050 2318 c0 -4 4 -8 9 -8 6 0 12 4 15 8 3 5 -1 9 -9 9 -8 0 -15 -4
-15 -9z"/>
<path d="M2123 2317 c2 -6 15 -12 29 -12 17 -1 24 3 21 10 -5 15 -55 17 -50 2z"/>
<path d="M226 2274 c-5 -14 -4 -15 9 -4 17 14 19 20 6 20 -5 0 -12 -7 -15 -16z"/>
<path d="M377 2283 c-10 -9 -9 -23 1 -23 5 0 9 7 9 15 0 17 -1 18 -10 8z"/>
<path d="M430 2282 c0 -4 9 -13 20 -20 11 -7 20 -9 20 -4 0 4 -9 13 -20 20
-11 7 -20 9 -20 4z"/>
<path d="M765 2281 c-3 -5 -2 -12 3 -15 5 -3 9 1 9 9 0 17 -3 19 -12 6z"/>
<path d="M105 2270 c-3 -6 1 -7 9 -4 18 7 21 14 7 14 -6 0 -13 -4 -16 -10z"/>
<path d="M2381 2243 c-1 -17 16 -25 25 -12 4 7 3 9 -4 5 -5 -3 -13 0 -15 6 -4
9 -6 10 -6 1z"/>
<path d="M2487 2169 c7 -7 15 -10 18 -7 3 3 -2 9 -12 12 -14 6 -15 5 -6 -5z"/>
<path d="M540 2156 c0 -8 4 -17 9 -20 5 -4 7 3 4 14 -6 23 -13 26 -13 6z"/>
<path d="M60 2040 c0 -5 5 -10 11 -10 5 0 7 5 4 10 -3 6 -8 10 -11 10 -2 0 -4
-4 -4 -10z"/>
<path d="M1523 2033 c14 -14 19 -15 29 -4 11 11 10 13 -4 8 -10 -4 -18 -2 -18
3 0 6 -5 10 -12 10 -8 0 -6 -6 5 -17z"/>
<path d="M2600 2040 c-9 -6 -10 -10 -3 -10 6 0 15 5 18 10 8 12 4 12 -15 0z"/>
<path d="M50 1980 c0 -6 7 -10 15 -10 19 0 19 6 0 14 -8 3 -15 1 -15 -4z"/>
<path d="M2626 1978 c3 -4 9 -8 15 -8 5 0 9 4 9 8 0 5 -7 9 -15 9 -8 0 -12 -4
-9 -9z"/>
<path d="M2652 1911 c7 -9 13 -18 15 -20 1 -2 1 5 0 16 0 11 -7 20 -14 20 -10
0 -10 -4 -1 -16z"/>
<path d="M34 1766 c1 -8 5 -18 8 -22 4 -3 5 1 4 10 -1 8 -5 18 -8 22 -4 3 -5
-1 -4 -10z"/>
<path d="M2670 1762 c0 -4 9 -8 20 -9 11 -1 20 2 20 5 0 4 -9 8 -20 9 -11 1
-20 -2 -20 -5z"/>
<path d="M2215 1609 c-4 -6 -5 -12 -2 -15 2 -3 7 2 10 11 7 17 1 20 -8 4z"/>
<path d="M1629 1608 c-10 -31 -7 -58 6 -58 8 0 15 5 15 11 0 5 -4 8 -9 4 -6
-3 -9 4 -8 15 1 15 6 19 22 14 16 -4 17 -3 5 5 -14 10 -29 14 -31 9z"/>
<path d="M60 1560 c0 -5 5 -10 11 -10 5 0 7 5 4 10 -3 6 -8 10 -11 10 -2 0 -4
-4 -4 -10z"/>
<path d="M1130 1556 c0 -2 7 -7 16 -10 8 -3 12 -2 9 4 -6 10 -25 14 -25 6z"/>
<path d="M50 1500 c0 -6 7 -10 15 -10 19 0 19 6 0 14 -8 3 -15 1 -15 -4z"/>
<path d="M1616 1482 c-3 -5 1 -9 9 -9 8 0 12 4 9 9 -3 4 -7 8 -9 8 -2 0 -6 -4
-9 -8z"/>
<path d="M528 1456 c-10 -7 -15 -16 -11 -19 10 -10 25 -8 19 2 -4 5 0 11 6 14
7 2 11 7 8 10 -3 3 -13 0 -22 -7z"/>
<path d="M1617 1449 c7 -7 15 -10 18 -7 3 3 -2 9 -12 12 -14 6 -15 5 -6 -5z"/>
<path d="M1135 1440 c-3 -5 -1 -10 4 -10 6 0 11 5 11 10 0 6 -2 10 -4 10 -3 0
-8 -4 -11 -10z"/>
<path d="M536 1322 c-3 -5 1 -9 9 -9 8 0 12 4 9 9 -3 4 -7 8 -9 8 -2 0 -6 -4
-9 -8z"/>
<path d="M1133 1315 c0 -7 6 -11 14 -8 7 3 13 6 13 8 0 2 -6 5 -13 8 -8 3 -14
-1 -14 -8z"/>
<path d="M34 1286 c1 -8 5 -18 8 -22 4 -3 5 1 4 10 -1 8 -5 18 -8 22 -4 3 -5
-1 -4 -10z"/>
<path d="M2684 1242 c3 -18 18 -20 24 -4 1 5 -4 12 -12 15 -9 4 -13 0 -12 -11z"/>
<path d="M513 1235 c0 -8 4 -12 9 -9 4 3 8 9 8 15 0 5 -4 9 -8 9 -5 0 -9 -7
-9 -15z"/>
<path d="M1136 1194 c-4 -9 -4 -19 -1 -22 3 -3 5 0 5 8 0 10 4 10 18 -1 15
-12 16 -12 5 2 -7 9 -10 19 -6 22 3 4 2 7 -4 7 -6 0 -14 -7 -17 -16z"/>
<path d="M60 1080 c0 -5 5 -10 11 -10 5 0 7 5 4 10 -3 6 -8 10 -11 10 -2 0 -4
-4 -4 -10z"/>
<path d="M513 1055 c0 -7 6 -11 14 -8 7 3 13 6 13 8 0 2 -6 5 -13 8 -8 3 -14
-1 -14 -8z"/>
<path d="M50 1020 c0 -6 7 -10 15 -10 19 0 19 6 0 14 -8 3 -15 1 -15 -4z"/>
<path d="M1151 1004 c0 -11 3 -14 6 -6 3 7 2 16 -1 19 -3 4 -6 -2 -5 -13z"/>
<path d="M515 1000 c-3 -5 -1 -10 4 -10 6 0 11 5 11 10 0 6 -2 10 -4 10 -3 0
-8 -4 -11 -10z"/>
<path d="M520 940 c-9 -6 -10 -10 -3 -10 6 0 15 5 18 10 8 12 4 12 -15 0z"/>
<path d="M2220 939 c0 -5 5 -7 10 -4 6 3 10 8 10 11 0 2 -4 4 -10 4 -5 0 -10
-5 -10 -11z"/>
<path d="M2684 922 c3 -18 18 -20 24 -4 1 5 -4 12 -12 15 -9 4 -13 0 -12 -11z"/>
<path d="M2229 888 c-6 -20 -6 -39 0 -42 4 -3 7 6 7 20 0 20 -4 32 -7 22z"/>
<path d="M516 853 c-6 -14 -5 -15 5 -6 7 7 10 15 7 18 -3 3 -9 -2 -12 -12z"/>
<path d="M1133 835 c0 -7 6 -11 14 -8 7 3 13 6 13 8 0 2 -6 5 -13 8 -8 3 -14
-1 -14 -8z"/>
<path d="M34 806 c1 -8 5 -18 8 -22 4 -3 5 1 4 10 -1 8 -5 18 -8 22 -4 3 -5
-1 -4 -10z"/>
<path d="M510 786 c0 -2 9 -6 20 -9 11 -3 18 -1 14 4 -5 9 -34 13 -34 5z"/>
<path d="M515 760 c-3 -5 -1 -10 4 -10 6 0 11 5 11 10 0 6 -2 10 -4 10 -3 0
-8 -4 -11 -10z"/>
<path d="M517 678 c-22 -23 -16 -36 6 -14 8 8 18 12 21 8 4 -3 4 1 0 11 -3 9
-7 17 -8 16 0 0 -9 -10 -19 -21z"/>
<path d="M1135 660 c-3 -5 -2 -10 4 -10 5 0 13 5 16 10 3 6 2 10 -4 10 -5 0
-13 -4 -16 -10z"/>
<path d="M2219 563 c-13 -16 -12 -17 4 -4 16 13 21 21 13 21 -2 0 -10 -8 -17
-17z"/>
<path d="M1152 561 c2 -7 7 -12 11 -12 12 1 9 15 -3 20 -7 2 -11 -2 -8 -8z"/>
<path d="M1614 535 c-4 -8 -11 -12 -17 -8 -6 3 -7 1 -3 -5 10 -16 14 -15 26 8
6 11 8 20 5 20 -3 0 -8 -7 -11 -15z"/>
<path d="M284 522 c3 -5 0 -13 -6 -15 -9 -4 -10 -6 -1 -6 17 -1 25 16 12 25
-7 4 -9 3 -5 -4z"/>
</g>
</svg>
